<svg width="50" height="47" viewBox="0 0 50 47" fill="none" xmlns="http://www.w3.org/2000/svg">
<path d="M25 47C11.1895 47 0 36.4819 0 23.5C0 10.5181 11.1895 0 25 0C38.8105 0 50 10.5181 50 23.5C50 36.4819 38.8105 47 25 47ZM27.9133 33.3927L20.3024 26.5323L38.7097 26.5323C40.0504 26.5323 41.129 25.5183 41.129 24.2581V22.7419C41.129 21.4817 40.0504 20.4677 38.7097 20.4677L20.3024 20.4677L27.9133 13.6073C28.8911 12.726 28.9113 11.2573 27.9536 10.3571L26.8448 9.32419C25.8972 8.43347 24.3649 8.43347 23.4274 9.32419L10.0504 21.8891C9.10282 22.7798 9.10282 24.2202 10.0504 25.1014L23.4274 37.6853C24.375 38.576 25.9073 38.576 26.8448 37.6853L27.9536 36.6524C28.9113 35.7427 28.8911 34.274 27.9133 33.3927Z" fill="black" fill-opacity="0.46"/>
</svg>
