<svg width="50" height="47" viewBox="0 0 50 47" fill="none" xmlns="http://www.w3.org/2000/svg">
<path d="M25 0C38.8105 0 50 10.5181 50 23.5C50 36.4819 38.8105 47 25 47C11.1895 47 0 36.4819 0 23.5C0 10.5181 11.1895 0 25 0ZM22.0867 13.6073L29.6976 20.4677H11.2903C9.9496 20.4677 8.87097 21.4817 8.87097 22.7419V24.2581C8.87097 25.5183 9.9496 26.5323 11.2903 26.5323H29.6976L22.0867 33.3927C21.1089 34.274 21.0887 35.7427 22.0464 36.6429L23.1552 37.6758C24.1028 38.5665 25.6351 38.5665 26.5726 37.6758L39.9496 25.1109C40.8972 24.2202 40.8972 22.7798 39.9496 21.8986L26.5726 9.31472C25.625 8.42399 24.0927 8.42399 23.1552 9.31472L22.0464 10.3476C21.0887 11.2573 21.1089 12.726 22.0867 13.6073Z" fill="black" fill-opacity="0.46"/>
</svg>
